<?xml version="1.0" encoding="iso-8859-1"?>
<!-- Generator: Adobe Illustrator 19.0.0, SVG Export Plug-In . SVG Version: 6.00 Build 0)  -->
<svg version="1.1" id="Layer_1" xmlns="http://www.w3.org/2000/svg" xmlns:xlink="http://www.w3.org/1999/xlink" x="0px" y="0px"
	 viewBox="0 0 512 512" style="enable-background:new 0 0 512 512;" xml:space="preserve">
<path style="fill:#3C66B1;" d="M256,0c-38.961,0-85.921,14.775-85.921,14.775C70.956,50.084,0,144.756,0,256
	c0,141.385,114.615,256,256,256s256-114.615,256-256S397.385,0,256,0z M256,462.352c-113.965,0-206.352-92.387-206.352-206.352
	S142.035,49.648,256,49.648S462.352,142.035,462.352,256S369.965,462.352,256,462.352z"/>
<circle style="fill:#52A2E7;" cx="256" cy="256" r="221.978"/>
<g>
	<path style="opacity:0.22;fill:#3C66B1;enable-background:new    ;" d="M404.465,47.428
		c29.859,41.873,47.427,93.116,47.427,148.464c0,141.385-114.615,256-256,256c-55.348,0-106.592-17.568-148.465-47.427
		C93.842,469.555,169.963,512,256,512c141.385,0,256-114.615,256-256C512,169.963,469.555,93.842,404.465,47.428z"/>
	<path style="fill:#3C66B1;" d="M192.763,176.515c7.98-4.78,16.041-9.57,24.921-12.802v40.281
		c-22.388,13.18-37.453,37.52-37.453,65.326c0,41.777,33.988,75.767,75.768,75.767c41.777,0,75.767-33.988,75.767-75.767
		c0-27.806-15.066-52.146-37.453-65.327v-40.281c43.135,15.697,74.025,57.112,74.025,105.607
		c0,61.944-50.394,112.338-112.338,112.338s-112.339-50.394-112.339-112.338c0-25.564,8.584-49.16,23.02-68.059
		C166.678,201.26,181.279,183.394,192.763,176.515z"/>
	<path style="fill:#3C66B1;" d="M255.997,222.699L255.997,222.699c-8.62,0-15.673-7.053-15.673-15.673v-61.017
		c0-8.62,7.053-15.673,15.673-15.673l0,0c8.62,0,15.673,7.053,15.673,15.673v61.017C271.67,215.646,264.617,222.699,255.997,222.699
		z"/>
</g>
<g>
</g>
<g>
</g>
<g>
</g>
<g>
</g>
<g>
</g>
<g>
</g>
<g>
</g>
<g>
</g>
<g>
</g>
<g>
</g>
<g>
</g>
<g>
</g>
<g>
</g>
<g>
</g>
<g>
</g>
</svg>
